<svg xmlns="http://www.w3.org/2000/svg" width="371.711" height="371.711" viewBox="0 0 371.711 371.711">
  <g id="pulse-full" transform="translate(0.5 0.5)">
    <path id="Path_54519" data-name="Path 54519" d="M178.426,139.214a39.211,39.211,0,1,0-39.211,39.211,39.21,39.21,0,0,0,39.211-39.211m-52.281,0a13.07,13.07,0,1,1,13.07,13.071,13.085,13.085,0,0,1-13.07-13.071" transform="translate(44.959 47.32)" fill="#99b2ca" stroke="rgba(0,0,0,0)" stroke-width="1"/>
    <path id="Path_54520" data-name="Path 54520" d="M182.994,91.5a91.5,91.5,0,1,0-91.5,91.5,91.5,91.5,0,0,0,91.5-91.5M45.285,137.709A65.347,65.347,0,1,1,91.5,156.854a64.915,64.915,0,0,1-46.212-19.144" transform="translate(92.678 95.037)" fill="#99b2ca" stroke="rgba(0,0,0,0)" stroke-width="1" opacity="0.804"/>
    <path id="Ellipse_353" data-name="Ellipse 353" d="M185.355,25.276c-88.268,0-160.08,71.811-160.08,160.08s71.811,160.08,160.08,160.08,160.08-71.811,160.08-160.08-71.811-160.08-160.08-160.08m0-25.276C287.724,0,370.711,82.986,370.711,185.355S287.724,370.711,185.355,370.711,0,287.724,0,185.355,82.986,0,185.355,0Z" fill="#99b2ca" stroke="rgba(0,0,0,0)" stroke-width="1" opacity="0.401"/>
    <path id="Ellipse_354" data-name="Ellipse 354" d="M139.017,25.276A113.741,113.741,0,1,0,252.757,139.017,113.87,113.87,0,0,0,139.017,25.276m0-25.276A139.017,139.017,0,1,1,0,139.017,139.017,139.017,0,0,1,139.017,0Z" transform="translate(44.934 46.34)" fill="#99b2ca" stroke="rgba(0,0,0,0)" stroke-width="1" opacity="0.597"/>
  </g>
</svg>
